{"asset":{"version":"2.0","generator":"Blockbench 4.9.3 glTF exporter"},"scenes":[{"nodes":[11],"name":"blockbench_export"}],"scene":0,"nodes":[{"name":"cuboid-col","mesh":0},{"name":"cube-col","mesh":1},{"name":"cube-col","mesh":2},{"name":"cube-col","mesh":3},{"name":"cube-col","mesh":4},{"name":"cuboid-col","mesh":5},{"name":"cuboid-col","mesh":6},{"rotation":[0,-1,0,6.123233995736766e-17],"name":"cuboid-col","mesh":7},{"rotation":[0,0.7071067811865475,0,0.7071067811865476],"name":"cuboid-col","mesh":8},{"rotation":[0,0.7071067811865475,0,0.7071067811865476],"name":"cuboid-col","mesh":9},{"rotation":[0,-0.7071067811865475,0,0.7071067811865476],"name":"cuboid-col","mesh":10},{"children":[0,1,2,3,4,5,6,7,8,9,10]}],"bufferViews":[{"buffer":0,"byteOffset":0,"byteLength":288,"target":34962,"byteStride":12},{"buffer":0,"byteOffset":288,"byteLength":288,"target":34962,"byteStride":12},{"buffer":0,"byteOffset":576,"byteLength":192,"target":34962,"byteStride":8},{"buffer":0,"byteOffset":768,"byteLength":72,"target":34963},{"buffer":0,"byteOffset":840,"byteLength":288,"target":34962,"byteStride":12},{"buffer":0,"byteOffset":1128,"byteLength":288,"target":34962,"byteStride":12},{"buffer":0,"byteOffset":1416,"byteLength":192,"target":34962,"byteStride":8},{"buffer":0,"byteOffset":1608,"byteLength":72,"target":34963},{"buffer":0,"byteOffset":1680,"byteLength":288,"target":34962,"byteStride":12},{"buffer":0,"byteOffset":1968,"byteLength":288,"target":34962,"byteStride":12},{"buffer":0,"byteOffset":2256,"byteLength":192,"target":34962,"byteStride":8},{"buffer":0,"byteOffset":2448,"byteLength":72,"target":34963},{"buffer":0,"byteOffset":2520,"byteLength":288,"target":34962,"byteStride":12},{"buffer":0,"byteOffset":2808,"byteLength":288,"target":34962,"byteStride":12},{"buffer":0,"byteOffset":3096,"byteLength":192,"target":34962,"byteStride":8},{"buffer":0,"byteOffset":3288,"byteLength":72,"target":34963},{"buffer":0,"byteOffset":3360,"byteLength":288,"target":34962,"byteStride":12},{"buffer":0,"byteOffset":3648,"byteLength":288,"target":34962,"byteStride":12},{"buffer":0,"byteOffset":3936,"byteLength":192,"target":34962,"byteStride":8},{"buffer":0,"byteOffset":4128,"byteLength":72,"target":34963},{"buffer":0,"byteOffset":4200,"byteLength":2304,"target":34962,"byteStride":12},{"buffer":0,"byteOffset":6504,"byteLength":2304,"target":34962,"byteStride":12},{"buffer":0,"byteOffset":8808,"byteLength":1536,"target":34962,"byteStride":8},{"buffer":0,"byteOffset":10344,"byteLength":576,"target":34963},{"buffer":0,"byteOffset":10920,"byteLength":720,"target":34962,"byteStride":12},{"buffer":0,"byteOffset":11640,"byteLength":720,"target":34962,"byteStride":12},{"buffer":0,"byteOffset":12360,"byteLength":480,"target":34962,"byteStride":8},{"buffer":0,"byteOffset":12840,"byteLength":180,"target":34963},{"buffer":0,"byteOffset":13020,"byteLength":720,"target":34962,"byteStride":12},{"buffer":0,"byteOffset":13740,"byteLength":720,"target":34962,"byteStride":12},{"buffer":0,"byteOffset":14460,"byteLength":480,"target":34962,"byteStride":8},{"buffer":0,"byteOffset":14940,"byteLength":180,"target":34963},{"buffer":0,"byteOffset":15120,"byteLength":2304,"target":34962,"byteStride":12},{"buffer":0,"byteOffset":17424,"byteLength":2304,"target":34962,"byteStride":12},{"buffer":0,"byteOffset":19728,"byteLength":1536,"target":34962,"byteStride":8},{"buffer":0,"byteOffset":21264,"byteLength":576,"target":34963},{"buffer":0,"byteOffset":21840,"byteLength":720,"target":34962,"byteStride":12},{"buffer":0,"byteOffset":22560,"byteLength":720,"target":34962,"byteStride":12},{"buffer":0,"byteOffset":23280,"byteLength":480,"target":34962,"byteStride":8},{"buffer":0,"byteOffset":23760,"byteLength":180,"target":34963},{"buffer":0,"byteOffset":23940,"byteLength":720,"target":34962,"byteStride":12},{"buffer":0,"byteOffset":24660,"byteLength":720,"target":34962,"byteStride":12},{"buffer":0,"byteOffset":25380,"byteLength":480,"target":34962,"byteStride":8},{"buffer":0,"byteOffset":25860,"byteLength":180,"target":34963}],"buffers":[{"byteLength":26040,"uri":"data:application/octet-stream;base64,"}],"accessors":[{"bufferView":0,"componentType":5126,"count":24,"max":[1.5,0.0625,1.5],"min":[-1.5,0,-1.5],"type":"VEC3"},{"bufferView":1,"componentType":5126,"count":24,"max":[1,1,1],"min":[-1,-1,-1],"type":"VEC3"},{"bufferView":2,"componentType":5126,"count":24,"max":[0.7578125,0.7578125],"min":[0,0],"type":"VEC2"},{"bufferView":3,"componentType":5123,"count":36,"max":[23],"min":[0],"type":"SCALAR"},{"bufferView":4,"componentType":5126,"count":24,"max":[-0.5625,1.9375,0.75],"min":[-0.75,0,0.5625],"type":"VEC3"},{"bufferView":5,"componentType":5126,"count":24,"max":[1,1,1],"min":[-1,-1,-1],"type":"VEC3"},{"bufferView":6,"componentType":5126,"count":24,"max":[0.46875,0.6875],"min":[0,0],"type":"VEC2"},{"bufferView":7,"componentType":5123,"count":36,"max":[23],"min":[0],"type":"SCALAR"},{"bufferView":8,"componentType":5126,"count":24,"max":[0.75,1.9375,0.75],"min":[0.5625,0,0.5625],"type":"VEC3"},{"bufferView":9,"componentType":5126,"count":24,"max":[1,1,1],"min":[-1,-1,-1],"type":"VEC3"},{"bufferView":10,"componentType":5126,"count":24,"max":[0.46875,0.6875],"min":[0,0],"type":"VEC2"},{"bufferView":11,"componentType":5123,"count":36,"max":[23],"min":[0],"type":"SCALAR"},{"bufferView":12,"componentType":5126,"count":24,"max":[0.75,1.9375,-0.5625],"min":[0.5625,0,-0.75],"type":"VEC3"},{"bufferView":13,"componentType":5126,"count":24,"max":[1,1,1],"min":[-1,-1,-1],"type":"VEC3"},{"bufferView":14,"componentType":5126,"count":24,"max":[0.46875,0.6875],"min":[0,0],"type":"VEC2"},{"bufferView":15,"componentType":5123,"count":36,"max":[23],"min":[0],"type":"SCALAR"},{"bufferView":16,"componentType":5126,"count":24,"max":[-0.5625,1.9375,-0.5625],"min":[-0.75,0,-0.75],"type":"VEC3"},{"bufferView":17,"componentType":5126,"count":24,"max":[1,1,1],"min":[-1,-1,-1],"type":"VEC3"},{"bufferView":18,"componentType":5126,"count":24,"max":[0.46875,0.6875],"min":[0,0],"type":"VEC2"},{"bufferView":19,"componentType":5123,"count":36,"max":[23],"min":[0],"type":"SCALAR"},{"bufferView":20,"componentType":5126,"count":192,"max":[1.5,0.8125,1.5],"min":[-1.5,0.75,-1.5],"type":"VEC3"},{"bufferView":21,"componentType":5126,"count":192,"max":[1,1,1],"min":[-1,-1,-1],"type":"VEC3"},{"bufferView":22,"componentType":5126,"count":192,"max":[0.7578125,0.7578125],"min":[0,0],"type":"VEC2"},{"bufferView":23,"componentType":5123,"count":288,"max":[191],"min":[0],"type":"SCALAR"},{"bufferView":24,"componentType":5126,"count":60,"max":[0.5,0.8125,-1.125],"min":[-0.5,0,-1.5],"type":"VEC3"},{"bufferView":25,"componentType":5126,"count":60,"max":[1,1,1],"min":[-1,-1,-1],"type":"VEC3"},{"bufferView":26,"componentType":5126,"count":60,"max":[0.8595127463340759,0.9377754926681519],"min":[0,0],"type":"VEC2"},{"bufferView":27,"componentType":5123,"count":90,"max":[59],"min":[0],"type":"SCALAR"},{"bufferView":28,"componentType":5126,"count":60,"max":[0.5,0.8125,-1.125],"min":[-0.5,0,-1.5],"type":"VEC3"},{"bufferView":29,"componentType":5126,"count":60,"max":[1,1,1],"min":[-1,-1,-1],"type":"VEC3"},{"bufferView":30,"componentType":5126,"count":60,"max":[0.8595127463340759,0.9377754926681519],"min":[0,0],"type":"VEC2"},{"bufferView":31,"componentType":5123,"count":90,"max":[59],"min":[0],"type":"SCALAR"},{"bufferView":32,"componentType":5126,"count":192,"max":[1.5,1.5625,1.5],"min":[-1.5,1.5,-1.5],"type":"VEC3"},{"bufferView":33,"componentType":5126,"count":192,"max":[1,1,1],"min":[-1,-1,-1],"type":"VEC3"},{"bufferView":34,"componentType":5126,"count":192,"max":[0.7578125,0.7578125],"min":[0,0],"type":"VEC2"},{"bufferView":35,"componentType":5123,"count":288,"max":[191],"min":[0],"type":"SCALAR"},{"bufferView":36,"componentType":5126,"count":60,"max":[0.5,1.5625,-1.125],"min":[-0.5,0.75,-1.5],"type":"VEC3"},{"bufferView":37,"componentType":5126,"count":60,"max":[1,1,1],"min":[-1,-1,-1],"type":"VEC3"},{"bufferView":38,"componentType":5126,"count":60,"max":[0.8595127463340759,0.9377754926681519],"min":[0,0],"type":"VEC2"},{"bufferView":39,"componentType":5123,"count":90,"max":[59],"min":[0],"type":"SCALAR"},{"bufferView":40,"componentType":5126,"count":60,"max":[0.5,1.5625,-1.125],"min":[-0.5,0.75,-1.5],"type":"VEC3"},{"bufferView":41,"componentType":5126,"count":60,"max":[1,1,1],"min":[-1,-1,-1],"type":"VEC3"},{"bufferView":42,"componentType":5126,"count":60,"max":[0.8595127463340759,0.9377754926681519],"min":[0,0],"type":"VEC2"},{"bufferView":43,"componentType":5123,"count":90,"max":[59],"min":[0],"type":"SCALAR"}],"materials":[{"pbrMetallicRoughness":{"metallicFactor":0,"roughnessFactor":1,"baseColorTexture":{"index":0}},"alphaMode":"MASK","alphaCutoff":0.05},{"pbrMetallicRoughness":{"metallicFactor":0,"roughnessFactor":1,"baseColorTexture":{"index":1}},"alphaMode":"MASK","alphaCutoff":0.05},{"pbrMetallicRoughness":{"metallicFactor":0,"roughnessFactor":1,"baseColorTexture":{"index":2}},"alphaMode":"MASK","alphaCutoff":0.05},{"pbrMetallicRoughness":{"metallicFactor":0,"roughnessFactor":1,"baseColorTexture":{"index":3}},"alphaMode":"MASK","alphaCutoff":0.05}],"textures":[{"sampler":0,"source":0},{"sampler":1,"source":1},{"sampler":2,"source":2},{"sampler":3,"source":3}],"samplers":[{"magFilter":9728,"minFilter":9728,"wrapS":33071,"wrapT":33071},{"magFilter":9728,"minFilter":9728,"wrapS":33071,"wrapT":33071},{"magFilter":9728,"minFilter":9728,"wrapS":33071,"wrapT":33071},{"magFilter":9728,"minFilter":9728,"wrapS":33071,"wrapT":33071}],"images":[{"mimeType":"image/png","uri":"data:image/png;base64,"},{"mimeType":"image/png","uri":"data:image/png;base64,"},{"mimeType":"image/png","uri":"data:image/png;base64,"},{"mimeType":"image/png","uri":"data:image/png;base64,"}],"meshes":[{"primitives":[{"mode":4,"attributes":{"POSITION":0,"NORMAL":1,"TEXCOORD_0":2},"indices":3,"material":0}]},{"primitives":[{"mode":4,"attributes":{"POSITION":4,"NORMAL":5,"TEXCOORD_0":6},"indices":7,"material":1}]},{"primitives":[{"mode":4,"attributes":{"POSITION":8,"NORMAL":9,"TEXCOORD_0":10},"indices":11,"material":1}]},{"primitives":[{"mode":4,"attributes":{"POSITION":12,"NORMAL":13,"TEXCOORD_0":14},"indices":15,"material":2}]},{"primitives":[{"mode":4,"attributes":{"POSITION":16,"NORMAL":17,"TEXCOORD_0":18},"indices":19,"material":2}]},{"primitives":[{"mode":4,"attributes":{"POSITION":20,"NORMAL":21,"TEXCOORD_0":22},"indices":23,"material":0}]},{"primitives":[{"mode":4,"attributes":{"POSITION":24,"NORMAL":25,"TEXCOORD_0":26},"indices":27,"material":3}]},{"primitives":[{"mode":4,"attributes":{"POSITION":28,"NORMAL":29,"TEXCOORD_0":30},"indices":31,"material":3}]},{"primitives":[{"mode":4,"attributes":{"POSITION":32,"NORMAL":33,"TEXCOORD_0":34},"indices":35,"material":0}]},{"primitives":[{"mode":4,"attributes":{"POSITION":36,"NORMAL":37,"TEXCOORD_0":38},"indices":39,"material":3}]},{"primitives":[{"mode":4,"attributes":{"POSITION":40,"NORMAL":41,"TEXCOORD_0":42},"indices":43,"material":3}]}]}